IKResults
version=1
nRows=134
nColumns=3
inDegrees=yes

Units are S.I. units (second, meters, Newtons, ...)
If the header above contains a line with 'inDegrees', this indicates whether rotational values are in degrees (yes) or radians (no).

endheader
time	r_shoulder_elev	r_elbow_flex
      0.00000000	      7.27425307	      0.23291238
      0.00800000	      7.27170139	      0.23221824
      0.01700000	      7.26970807	      0.23165479
      0.02500000	      7.25785547	      0.25140306
      0.03300000	      7.25433888	      0.25012958
      0.04200000	      7.25058756	      0.24886086
      0.05000000	      7.24644722	      0.24752487
      0.05800000	      7.24189377	      0.24609741
      0.06700000	      7.22989588	      0.26227619
      0.07500000	      7.22571324	      0.26068712
      0.08300000	      7.22089410	      0.25894381
      0.09200000	      7.21564537	      0.25732331
      0.10000000	      7.21010922	      0.25559854
      0.10800000	      7.19616017	      0.27238279
      0.11700000	      7.19083119	      0.27035130
      0.12500000	      7.18655419	      0.26898732
      0.13300000	      7.17474493	      0.28597136
      0.14200000	      7.17041018	      0.28450521
      0.15000000	      7.15807138	      0.30019819
      0.15800000	      7.15353124	      0.29853363
      0.16700000	      7.14766432	      0.29658247
      0.17500000	      7.13278980	      0.31696296
      0.18300000	      7.12739787	      0.31505526
      0.19200000	      7.11489525	      0.32952306
      0.20000000	      7.10967932	      0.32777745
      0.20800000	      7.09477064	      0.34844892
      0.21700000	      7.08813607	      0.34602324
      0.22500000	      7.07878686	      0.34229630
      0.23300000	      7.06914572	      0.33817252
      0.24200000	      7.06152073	      0.33485122
      0.25000000	      7.05346129	      0.33148506
      0.25800000	      7.04633134	      0.32887943
      0.26700000	      7.03143190	      0.34617311
      0.27500000	      7.02559667	      0.34427000
      0.28300000	      7.01004991	      0.36341462
      0.29200000	      7.00326378	      0.36103994
      0.30000000	      6.98600382	      0.38207997
      0.30800000	      6.98010183	      0.38019058
      0.31700000	      6.96198281	      0.40659827
      0.32500000	      6.94947499	      0.42094013
      0.33300000	      6.93577660	      0.43934513
      0.34200000	      6.92221353	      0.45982565
      0.35000000	      6.90932741	      0.47669655
      0.35800000	      6.90174951	      0.47378301
      0.36700000	      6.89243194	      0.47007267
      0.37500000	      6.88431346	      0.46710801
      0.38300000	      6.87121396	      0.48012143
      0.39200000	      6.86481663	      0.47798008
      0.40000000	      6.84883075	      0.49689887
      0.40800000	      6.84207603	      0.49444859
      0.41700000	      6.82493641	      0.51729241
      0.42500000	      6.81170870	      0.53221527
      0.43300000	      6.80620999	      0.53048226
      0.44200000	      6.78850826	      0.55914464
      0.45000000	      6.77538908	      0.57666451
      0.45800000	      6.77082588	      0.57533892
      0.46700000	      6.75347876	      0.60513399
      0.47500000	      6.73977299	      0.62306099
      0.48300000	      6.73505684	      0.62167011
      0.49200000	      6.71550094	      0.65392158
      0.50000000	      6.71042030	      0.65235507
      0.50800000	      6.69299450	      0.68133261
      0.51700000	      6.68015154	      0.69676324
      0.52500000	      6.66874964	      0.71020885
      0.53300000	      6.65534066	      0.72708581
      0.54200000	      6.64952312	      0.72521613
      0.55000000	      6.62970680	      0.75638855
      0.55800000	      6.61659724	      0.77207071
      0.56700000	      6.60279963	      0.78821300
      0.57500000	      6.58779224	      0.80555765
      0.58300000	      6.57416990	      0.82045864
      0.59200000	      6.56705576	      0.81807380
      0.60000000	      6.54615111	      0.84833591
      0.60800000	      6.53849671	      0.84567450
      0.61700000	      6.51987825	      0.86832969
      0.62500000	      6.50506245	      0.88007621
      0.63300000	      6.49684418	      0.87708576
      0.64200000	      6.47882963	      0.89679981
      0.65000000	      6.47055569	      0.89380576
      0.65800000	      6.45093401	      0.91611632
      0.66700000	      6.44248241	      0.91302435
      0.67500000	      6.42537180	      0.93009888
      0.68300000	      6.41633543	      0.92684503
      0.69200000	      6.39727223	      0.94516996
      0.70000000	      6.38699794	      0.94098175
      0.70800000	      6.37647703	      0.93691191
      0.71700000	      6.36582965	      0.93285642
      0.72500000	      6.35526270	      0.92894821
      0.73300000	      6.33853938	      0.94155842
      0.74200000	      6.32917639	      0.93787347
      0.75000000	      6.31988241	      0.93455501
      0.75800000	      6.30265598	      0.94960622
      0.76700000	      6.29294436	      0.94570305
      0.77500000	      6.28264444	      0.94182221
      0.78300000	      6.27389128	      0.93866309
      0.79200000	      6.25654958	      0.95613172
      0.80000000	      6.24942573	      0.95342069
      0.80800000	      6.24335909	      0.95128116
      0.81700000	      6.23859740	      0.94987880
      0.82500000	      6.22428023	      0.97211089
      0.83300000	      6.22088029	      0.97094537
      0.84200000	      6.21135301	      0.98633484
      0.85000000	      6.20823871	      0.98534906
      0.85800000	      6.19815487	      1.00369980
      0.86700000	      6.19708014	      1.00340315
      0.87500000	      6.18678450	      1.02458613
      0.88300000	      6.18571712	      1.02424769
      0.89200000	      6.18372306	      1.02368054
      0.90000000	      6.17290506	      1.04585205
      0.90800000	      6.17249189	      1.04586138
      0.91700000	      6.17194212	      1.04594783
      0.92500000	      6.17241646	      1.04642198
      0.93300000	      6.17275543	      1.04696442
      0.94200000	      6.16632458	      1.06449961
      0.95000000	      6.16762834	      1.06508587
      0.95800000	      6.16850448	      1.06556160
      0.96700000	      6.17036308	      1.06645203
      0.97500000	      6.17195475	      1.06729859
      0.98300000	      6.16650063	      1.08713182
      0.99200000	      6.16828598	      1.08802540
      1.00000000	      6.16365934	      1.10726252
      1.00800000	      6.16552976	      1.10850114
      1.01700000	      6.15794844	      1.13466518
      1.02500000	      6.16007837	      1.13618404
      1.03300000	      6.15028955	      1.16963235
      1.04200000	      6.14405379	      1.19140357
      1.05000000	      6.13596135	      1.21442593
      1.05800000	      6.12878158	      1.23236993
      1.06700000	      6.11977879	      1.25421082
      1.07500000	      6.11070238	      1.27582799
      1.08300000	      6.09970692	      1.30178548
      1.09200000	      6.08911184	      1.32316728
      1.10000000	      6.07575318	      1.35016054
      1.10800000	      6.06247838	      1.37545744
